<svg width="25" height="25" fill="none" xmlns="http://www.w3.org/2000/svg"><path stroke="#DCDCDC" d="M.5.5h24v24H.5z"/><g clip-path="url(#clip0_165_3733)"><path d="M12.5 5.5c-3.86 0-7 3.14-7 7s3.14 7 7 7a6.983 6.983 0 003.734-1.078l-.468-.74a6.105 6.105 0 01-3.266.943A6.132 6.132 0 016.375 12.5 6.132 6.132 0 0112.5 6.375a6.132 6.132 0 016.125 6.125v.438a1.314 1.314 0 01-2.625 0V9.874h-.875v.335A3.478 3.478 0 0012.5 9C10.57 9 9 10.57 9 12.5s1.57 3.5 3.5 3.5c1.307 0 2.436-.73 3.037-1.794a2.182 2.182 0 001.775.919 2.19 2.19 0 002.188-2.188V12.5c0-3.86-3.14-7-7-7zm0 9.625A2.628 2.628 0 019.875 12.5 2.628 2.628 0 0112.5 9.875a2.628 2.628 0 012.625 2.625 2.628 2.628 0 01-2.625 2.625z" fill="#DB3B16"/></g><defs><clipPath id="clip0_165_3733"><path fill="#fff" transform="translate(5.5 5.5)" d="M0 0h14v14H0z"/></clipPath></defs></svg>