<svg width="25" height="25" fill="none" xmlns="http://www.w3.org/2000/svg"><path stroke="#DB3B16" stroke-opacity=".5" d="M.5.5h24v24H.5z"/><g clip-path="url(#clip0_229_843)"><path d="M18.917 19.5C11.518 19.5 5.5 13.482 5.5 6.083c0-.322.26-.583.583-.583h4.667c.322 0 .583.26.583.583 0 1.154.262 2.273.777 3.325a.584.584 0 01-.146.701l-3.242 2.76a12.345 12.345 0 003.405 3.406l2.764-3.24a.584.584 0 01.7-.145 7.51 7.51 0 003.326.777c.322 0 .583.26.583.583v4.667c0 .322-.26.583-.583.583zm-5.776-2.616a12.162 12.162 0 005.192 1.436v-3.506a8.642 8.642 0 01-2.84-.686l-2.352 2.756zM6.68 6.667a12.16 12.16 0 001.432 5.188l2.758-2.349a8.656 8.656 0 01-.685-2.84H6.68z" fill="#DB3B16"/></g><defs><clipPath id="clip0_229_843"><path fill="#fff" transform="translate(5.5 5.5)" d="M0 0h14v14H0z"/></clipPath></defs></svg>