<svg width="80" height="80" fill="none" xmlns="http://www.w3.org/2000/svg"><path d="M48.177 11.715h-1.61a.8.8 0 010-1.6h1.61a.8.8 0 010 1.6zM22.68 35.651a.8.8 0 01-.8-.8V19.586a.8.8 0 01.249-.58l9.104-8.67a.8.8 0 01.552-.221h9.178a.8.8 0 010 1.6h-8.858l-8.624 8.214V34.85a.8.8 0 01-.8.8zm42.807 35.712H29.136a.8.8 0 110-1.6h35.551V48.604a.8.8 0 111.6 0v21.96a.8.8 0 01-.8.8zm0-38.807a.8.8 0 01-.8-.8V11.715h-9.92a.8.8 0 110-1.6h10.72a.8.8 0 01.8.8v20.84a.8.8 0 01-.8.8zM43.13 40.667a.798.798 0 01-.427-.123c-.1-.063-2.478-1.574-4.888-3.973-3.31-3.292-4.987-6.528-4.987-9.617 0-1.72.463-3.123 1.376-4.172.807-.926 1.923-1.511 3.228-1.692 2.878-.398 5.78 1.263 6.468 3.703a.8.8 0 01-.06.585l-1.312 2.534 2.386 3.35a.8.8 0 01-.058 1l-2.369 2.619 1.41 4.76a.8.8 0 01-.767 1.026zm-4.872-18.033a4.48 4.48 0 00-.606.041c-2.05.284-3.224 1.843-3.224 4.28 0 4.566 4.601 8.816 7.271 10.898l-.874-2.948A.8.8 0 0141 34.14l2.239-2.475-2.297-3.224a.8.8 0 01-.059-.832l1.382-2.666c-.593-1.472-2.383-2.31-4.006-2.31z" fill="#000"/><path d="M47.457 40.667a.802.802 0 01-.767-.572l-1.538-5.19a.8.8 0 01.173-.765l2.24-2.474-2.298-3.224a.8.8 0 01-.059-.832l1.492-2.878c.292-1.194 1.114-2.221 2.326-2.904 1.127-.634 2.526-.918 3.84-.779 2.365.252 4.893 1.936 4.893 5.905 0 3.089-1.677 6.324-4.987 9.617-2.41 2.399-4.788 3.91-4.888 3.973a.8.8 0 01-.427.123zm-.644-5.786l1.098 3.703c2.29-1.65 8.248-6.441 8.248-11.63 0-3.56-2.422-4.203-3.463-4.314-2.36-.251-4.152 1.122-4.457 2.538a.802.802 0 01-.072.2l-1.313 2.534 2.387 3.35a.8.8 0 01-.059 1l-2.369 2.619z" fill="#DB3B16"/><path d="M31.785 20.386H22.68a.8.8 0 01-.552-1.38l9.104-8.67a.8.8 0 011.352.579v8.67a.8.8 0 01-.8.8zm-7.104-1.6h6.304V12.78l-6.304 6.005z" fill="#000"/><path d="M41.085 57.391a.816.816 0 00-.047-.233.802.802 0 00-.036-.081c-.007-.013-.01-.026-.018-.039l-5.226-9.146h.514a2.695 2.695 0 002.692-2.692v-.193a2.695 2.695 0 00-2.692-2.692H28.42a5.887 5.887 0 00.316-1.903 5.92 5.92 0 00-5.914-5.914 5.92 5.92 0 00-5.914 5.914c0 .665.112 1.305.316 1.903H9.372a2.695 2.695 0 00-2.693 2.692v.193a2.695 2.695 0 002.693 2.692h.23l-5.225 9.146c-.007.013-.011.026-.017.039a.807.807 0 00-.076.23.785.785 0 00-.008.084c-.001.015-.005.029-.005.044 0 1.626.376 3.152 1.058 4.297.688 1.156 1.609 1.818 2.527 1.818h6.25c.919 0 1.84-.662 2.528-1.818.681-1.145 1.057-2.671 1.057-4.297 0-.015-.004-.03-.005-.044a.811.811 0 00-.047-.233.802.802 0 00-.036-.081c-.007-.013-.01-.026-.018-.039l-5.226-9.146h5.117v.5a2.723 2.723 0 002.367 2.695v15.567h-.757a2.999 2.999 0 00-2.995 2.995v3.249a.8.8 0 00.8.8h11.862a.8.8 0 00.8-.8v-3.249a2.999 2.999 0 00-2.996-2.995H25.8V51.087a2.722 2.722 0 002.367-2.695v-.5h4.835l-5.226 9.146c-.007.013-.011.026-.017.039a.802.802 0 00-.076.23.785.785 0 00-.008.084c-.001.015-.005.029-.005.044 0 1.626.376 3.152 1.058 4.297.687 1.156 1.608 1.818 2.527 1.818h6.25c.919 0 1.84-.662 2.527-1.818.682-1.145 1.058-2.671 1.058-4.297 0-.015-.004-.03-.005-.044zm-30.104-8.686l4.531 7.93H6.45l4.531-7.93zm3.126 13.245H7.856c-.538 0-1.73-1.262-1.95-3.715h10.15c-.219 2.453-1.412 3.715-1.95 3.715zm22.165-18.035c.602 0 1.092.49 1.092 1.092v.193c0 .602-.49 1.092-1.092 1.092h-8.365a2.733 2.733 0 00-1.328-1.317c.377-.31.714-.667 1.004-1.06h8.689zm-13.45-7.817a4.319 4.319 0 014.314 4.314 4.319 4.319 0 01-4.314 4.314 4.319 4.319 0 01-4.314-4.314 4.319 4.319 0 014.314-4.314zM8.279 45.2v-.193c0-.602.49-1.092 1.093-1.092h8.688c.29.393.628.75 1.004 1.06a2.733 2.733 0 00-1.328 1.317H9.372c-.603 0-1.093-.49-1.093-1.092zm19.673 24.45v2.448H17.691v-2.449c0-.77.626-1.395 1.395-1.395h7.471c.77 0 1.395.626 1.395 1.395zm-6.509-2.996V51.112H24.2v15.542h-2.757zm5.124-18.262a1.12 1.12 0 01-1.12 1.12h-5.251a1.12 1.12 0 01-1.12-1.12v-.946c0-.618.502-1.12 1.12-1.12h5.252c.617 0 1.12.502 1.12 1.12v.946zm12.344 8.243H29.85l4.531-7.93 4.531 7.93zm-1.406 5.315h-6.25c-.538 0-1.73-1.262-1.95-3.715h10.15c-.22 2.453-1.412 3.715-1.95 3.715z" fill="#DB3B16"/><path d="M53.853 62.572a.799.799 0 01-.799-.75l-.516-8.223a.8.8 0 01.35-.713l3.92-2.644a.799.799 0 01.825-.042l3.783 2.033a.8.8 0 01.421.712l-.042 4.726a.8.8 0 01-.4.687l-7.143 4.108a.8.8 0 01-.4.106zm.31-8.616l.407 6.48L60.2 57.2l.033-3.785-2.931-1.575-3.139 2.117z" fill="#000"/><path d="M53.852 62.572a.8.8 0 01-.704-1.179l3.302-6.145a.8.8 0 011.41.757l-3.303 6.146a.8.8 0 01-.705.421zm7.185-8.835a.799.799 0 01-.378-.095l-3.783-2.032a.8.8 0 01-.421-.704c0-.153.014-3.771 1.613-6.746l8.482-15.786c1.08-2.007 3.762-4.943 6.977-3.216 1.506.81 2.266 2.199 2.198 4.02-.062 1.653-.804 3.153-1.03 3.573l-8.482 15.786c-1.598 2.975-4.608 4.984-4.735 5.068a.8.8 0 01-.44.133zm-2.965-3.3l2.905 1.56c.813-.61 2.735-2.186 3.827-4.218l8.482-15.785c.185-.344.79-1.566.84-2.877.044-1.2-.4-2.035-1.357-2.55-.957-.514-1.897-.423-2.874.277-1.066.764-1.75 1.944-1.935 2.287l-8.483 15.786c-1.091 2.032-1.345 4.504-1.404 5.52z" fill="#000"/><path d="M65.816 48.386a.797.797 0 01-.379-.096l-6.735-3.62a.8.8 0 01-.326-1.082l1.7-3.164a.8.8 0 011.083-.326l6.735 3.62a.8.8 0 01.326 1.083l-1.7 3.163a.8.8 0 01-.704.422zm-5.652-4.746l5.326 2.862.942-1.754-5.326-2.862-.942 1.754zm-6.311 18.932h-7.897a.8.8 0 010-1.6h7.897a.8.8 0 110 1.6zm-.517-44.065H40.29a.8.8 0 110-1.6h13.046a.8.8 0 110 1.6z" fill="#000"/></svg>