<svg width="25" height="26" fill="none" xmlns="http://www.w3.org/2000/svg"><path stroke="#DCDCDC" d="M.5 1h24v24H.5z"/><g clip-path="url(#clip0_165_3744)" fill="#DB3B16"><path d="M12.5 6c-3.86 0-7 3.14-7 7s3.14 7 7 7 7-3.14 7-7-3.14-7-7-7zm0 13.125A6.132 6.132 0 016.375 13 6.132 6.132 0 0112.5 6.875 6.132 6.132 0 0118.625 13a6.132 6.132 0 01-6.125 6.125z"/><path d="M12.938 8.625h-.876v4.556l2.754 2.753.618-.618-2.496-2.497V8.625z"/></g><defs><clipPath id="clip0_165_3744"><path fill="#fff" transform="translate(5.5 6)" d="M0 0h14v14H0z"/></clipPath></defs></svg>