<svg width="25" height="25" viewBox="0 0 25 25" fill="none" xmlns="http://www.w3.org/2000/svg">
<rect x="0.5" y="0.5" width="24" height="24" stroke="#DCDCDC"/>
<g clip-path="url(#clip0_165_3733)">
<path d="M12.5 5.5C8.64027 5.5 5.5 8.64027 5.5 12.5C5.5 16.3597 8.64027 19.5 12.5 19.5C13.8262 19.5 15.1173 19.127 16.2337 18.4221L15.7663 17.6821C14.79 18.299 13.6604 18.625 12.5 18.625C9.12264 18.625 6.375 15.8774 6.375 12.5C6.375 9.12264 9.12261 6.375 12.5 6.375C15.8774 6.375 18.625 9.12261 18.625 12.5V12.9375C18.625 13.6613 18.0363 14.25 17.3125 14.25C16.5887 14.25 16 13.6613 16 12.9375V9.87501H15.125V10.2096C14.4829 9.47461 13.5503 9.00001 12.5 9.00001C10.5701 9.00001 9.00001 10.5701 9.00001 12.5C9.00001 14.4299 10.5701 16 12.5 16C13.8075 16 14.9363 15.2708 15.5371 14.2058C15.9344 14.76 16.5801 15.125 17.3125 15.125C18.5186 15.125 19.5 14.1436 19.5 12.9375V12.5C19.5 8.64027 16.3597 5.5 12.5 5.5ZM12.5 15.125C11.0525 15.125 9.87501 13.9475 9.87501 12.5C9.87501 11.0525 11.0525 9.87501 12.5 9.87501C13.9475 9.87501 15.125 11.0525 15.125 12.5C15.125 13.9475 13.9475 15.125 12.5 15.125Z" fill="#DB3B16"/>
</g>
<defs>
<clipPath id="clip0_165_3733">
<rect width="14" height="14" fill="white" transform="translate(5.5 5.5)"/>
</clipPath>
</defs>
</svg>
