<svg width="25" height="25" viewBox="0 0 25 25" fill="none" xmlns="http://www.w3.org/2000/svg">
<rect x="0.5" y="0.5" width="24" height="24" stroke="#DCDCDC"/>
<g clip-path="url(#clip0_165_3728)">
<path d="M18.9167 19.5C11.5185 19.5 5.5 13.4815 5.5 6.08335C5.5 5.76091 5.76091 5.5 6.08335 5.5H10.75C11.0724 5.5 11.3334 5.76091 11.3334 6.08335C11.3334 7.23692 11.5948 8.35574 12.1098 9.40846C12.2266 9.64771 12.1668 9.93598 11.964 10.1091L8.72201 12.8686C9.62149 14.2159 10.7802 15.3751 12.1269 16.2752L14.8914 13.0355C15.0646 12.8322 15.3523 12.7741 15.5916 12.8903C16.6443 13.4052 17.7631 13.6667 18.9167 13.6667C19.2391 13.6667 19.5 13.9276 19.5 14.2501V18.9167C19.5 19.2391 19.2391 19.5 18.9167 19.5ZM13.1409 16.8841C14.7012 17.7221 16.4626 18.2314 18.3333 18.3197V14.814C17.3558 14.7485 16.4045 14.5189 15.493 14.1281C15.493 14.1281 13.1409 16.8841 13.1409 16.8841ZM6.68034 6.66666C6.76805 8.53513 7.27678 10.2954 8.11306 11.8546L10.8714 9.50642C10.4812 8.59498 10.2516 7.64364 10.1861 6.66666C10.1861 6.66666 6.68034 6.66666 6.68034 6.66666Z" fill="#DB3B16"/>
</g>
<defs>
<clipPath id="clip0_165_3728">
<rect width="14" height="14" fill="white" transform="translate(5.5 5.5)"/>
</clipPath>
</defs>
</svg>
