<svg width="25" height="26" viewBox="0 0 25 26" fill="none" xmlns="http://www.w3.org/2000/svg">
<rect x="0.5" y="1" width="24" height="24" stroke="#DCDCDC"/>
<path d="M12.5 6C9.60498 6 7.25 8.35498 7.25 11.25C7.25 15.7801 12.0198 19.7351 12.2231 19.9013C12.3035 19.9671 12.4017 20 12.5 20C12.5983 20 12.6965 19.9671 12.7769 19.9013C12.9802 19.7351 17.75 15.7801 17.75 11.25C17.75 8.35498 15.395 6 12.5 6ZM12.4996 18.9818C11.4972 18.0782 8.12498 14.7756 8.12498 11.25C8.12498 8.83773 10.0877 6.87498 12.5 6.87498C14.9122 6.87498 16.875 8.83773 16.875 11.25C16.875 14.7701 13.5015 18.0778 12.4996 18.9818Z" fill="#DB3B16"/>
<path d="M12.5 8.625C11.0525 8.625 9.875 9.80248 9.875 11.25C9.875 12.6975 11.0525 13.875 12.5 13.875C13.9475 13.875 15.125 12.6975 15.125 11.25C15.125 9.80248 13.9475 8.625 12.5 8.625ZM12.5 13C11.5349 13 10.75 12.2151 10.75 11.25C10.75 10.2849 11.5349 9.50001 12.5 9.50001C13.4651 9.50001 14.25 10.2849 14.25 11.25C14.25 12.2152 13.4651 13 12.5 13Z" fill="#DB3B16"/>
</svg>
