<svg width="25" height="25" viewBox="0 0 25 25" fill="none" xmlns="http://www.w3.org/2000/svg">
<rect x="0.5" y="0.5" width="24" height="24" stroke="#DB3B16" stroke-opacity="0.5"/>
<g clip-path="url(#clip0_229_837)">
<path d="M12.5 5.5C9.60498 5.5 7.25 7.85498 7.25 10.75C7.25 15.2801 12.0198 19.2351 12.2231 19.4013C12.3035 19.4671 12.4017 19.5 12.5 19.5C12.5983 19.5 12.6965 19.4671 12.7769 19.4013C12.9802 19.2351 17.75 15.2801 17.75 10.75C17.75 7.85498 15.395 5.5 12.5 5.5ZM12.4996 18.4818C11.4972 17.5782 8.12498 14.2756 8.12498 10.75C8.12498 8.33773 10.0877 6.37498 12.5 6.37498C14.9122 6.37498 16.875 8.33773 16.875 10.75C16.875 14.2701 13.5015 17.5778 12.4996 18.4818Z" fill="#DB3B16"/>
<path d="M12.5 8.125C11.0525 8.125 9.875 9.30248 9.875 10.75C9.875 12.1975 11.0525 13.375 12.5 13.375C13.9475 13.375 15.125 12.1975 15.125 10.75C15.125 9.30248 13.9475 8.125 12.5 8.125ZM12.5 12.5C11.5349 12.5 10.75 11.7151 10.75 10.75C10.75 9.78486 11.5349 9.00001 12.5 9.00001C13.4651 9.00001 14.25 9.78486 14.25 10.75C14.25 11.7152 13.4651 12.5 12.5 12.5Z" fill="#DB3B16"/>
</g>
<defs>
<clipPath id="clip0_229_837">
<rect width="14" height="14" fill="white" transform="translate(5.5 5.5)"/>
</clipPath>
</defs>
</svg>
