<svg width="80" height="80" viewBox="0 0 80 80" fill="none" xmlns="http://www.w3.org/2000/svg">
<path d="M48.1767 11.7147H46.5678C46.126 11.7147 45.7678 11.3565 45.7678 10.9147C45.7678 10.473 46.126 10.1147 46.5678 10.1147H48.1767C48.6186 10.1147 48.9767 10.473 48.9767 10.9147C48.9767 11.3565 48.6186 11.7147 48.1767 11.7147Z" fill="black"/>
<path d="M22.6806 35.6514C22.2387 35.6514 21.8806 35.2932 21.8806 34.8514V19.5857C21.8806 19.3668 21.9703 19.1574 22.1289 19.0064L31.2331 10.3354C31.3819 10.1937 31.5794 10.1147 31.7848 10.1147H40.9628C41.4047 10.1147 41.7628 10.473 41.7628 10.9147C41.7628 11.3565 41.4047 11.7147 40.9628 11.7147H32.1048L23.4806 19.9286V34.8514C23.4806 35.2932 23.1225 35.6514 22.6806 35.6514Z" fill="black"/>
<path d="M65.4874 71.3634H29.1359C28.6941 71.3634 28.3359 71.0053 28.3359 70.5634C28.3359 70.1215 28.6941 69.7634 29.1359 69.7634H64.6873V48.6042C64.6873 48.1623 65.0455 47.8042 65.4874 47.8042C65.9292 47.8042 66.2873 48.1623 66.2873 48.6042V70.5634C66.2873 71.0053 65.9292 71.3634 65.4874 71.3634Z" fill="black"/>
<path d="M65.4874 32.5557C65.0455 32.5557 64.6874 32.1975 64.6874 31.7557V11.7147H54.7663C54.3244 11.7147 53.9663 11.3565 53.9663 10.9147C53.9663 10.473 54.3244 10.1147 54.7663 10.1147H65.4874C65.9293 10.1147 66.2874 10.473 66.2874 10.9147V31.7557C66.2874 32.1975 65.9293 32.5557 65.4874 32.5557Z" fill="black"/>
<path d="M43.1305 40.6675C42.9826 40.6675 42.8344 40.6266 42.7035 40.5439C42.6035 40.4808 40.2255 38.9698 37.8149 36.5712C34.5057 33.2786 32.8279 30.043 32.8279 26.9543C32.8279 25.2343 33.291 23.8305 34.2044 22.782C35.0113 21.8558 36.1274 21.2708 37.4324 21.0902C40.3099 20.6919 43.2121 22.353 43.9005 24.7927C43.9557 24.9884 43.9343 25.1977 43.8409 25.3781L42.5277 27.9117L44.9145 31.2615C45.1324 31.5674 45.1082 31.9838 44.8562 32.2624L42.4871 34.8808L43.8976 39.6401C43.9923 39.9595 43.879 40.3042 43.6134 40.5053C43.4711 40.613 43.301 40.6675 43.1305 40.6675ZM38.2585 22.6343C38.0526 22.6343 37.8494 22.6477 37.6516 22.6751C35.6029 22.9586 34.4279 24.5183 34.4279 26.9543C34.4279 31.521 39.0294 35.7713 41.6991 37.8527L40.8254 34.9046C40.7462 34.637 40.8119 34.3475 40.9991 34.1405L43.238 31.666L40.9408 28.442C40.7666 28.1975 40.744 27.8761 40.8821 27.6096L42.2638 24.9438C41.6713 23.4716 39.8815 22.6343 38.2585 22.6343Z" fill="black"/>
<path d="M47.4567 40.6673C47.3617 40.6673 47.2662 40.6503 47.175 40.6161C46.9405 40.5278 46.7609 40.3348 46.6897 40.0946L45.1516 34.9044C45.0723 34.6369 45.1381 34.3473 45.3253 34.1404L47.5642 31.6659L45.267 28.4418C45.0928 28.1973 45.0701 27.8759 45.2083 27.6095L46.6998 24.7315C46.9916 23.5385 47.8137 22.5108 49.0261 21.8282C50.1533 21.1936 51.5525 20.91 52.8653 21.0495C55.2312 21.3014 57.7594 22.9848 57.7594 26.9541C57.7594 30.0428 56.0816 33.2784 52.7724 36.5711C50.3617 38.9697 47.9838 40.4806 47.8838 40.5438C47.7542 40.6255 47.6059 40.6673 47.4567 40.6673ZM46.8133 34.8806L47.9109 38.5842C50.2008 36.9346 56.1594 32.1427 56.1594 26.9541C56.1594 23.3937 53.7372 22.7514 52.6958 22.6405C50.3356 22.3887 48.5437 23.7621 48.2387 25.1783C48.2237 25.2477 48.1997 25.3149 48.167 25.378L46.8539 27.9116L49.2406 31.2613C49.4586 31.5673 49.4344 31.9837 49.1823 32.2623L46.8133 34.8806Z" fill="#DB3B16"/>
<path d="M31.7849 20.3858H22.6806C22.3534 20.3858 22.0594 20.1866 21.9378 19.8829C21.8164 19.5791 21.892 19.2321 22.1289 19.0065L31.2331 10.3355C31.4648 10.1147 31.8058 10.0533 32.1 10.1795C32.3941 10.3056 32.5849 10.5948 32.5849 10.9148V19.5858C32.5849 20.0276 32.2267 20.3858 31.7849 20.3858ZM24.6806 18.7858H30.9849V12.7815L24.6806 18.7858Z" fill="black"/>
<path d="M41.0854 57.391C41.0838 57.3626 41.0814 57.3344 41.0768 57.306C41.0725 57.2799 41.0665 57.2547 41.0598 57.2295C41.0533 57.2052 41.0464 57.1813 41.0375 57.1575C41.0271 57.1296 41.0148 57.103 41.0015 57.0766C40.9951 57.0639 40.9915 57.0505 40.9843 57.038L35.7585 47.8923H36.2718C37.7562 47.8923 38.9639 46.6846 38.9639 45.2002V45.0068C38.9639 43.5223 37.7562 42.3146 36.2718 42.3146H28.4198C28.6235 41.717 28.7357 41.0773 28.7357 40.4116C28.7357 37.1506 26.0828 34.4976 22.8217 34.4976C19.5606 34.4976 16.9076 37.1506 16.9076 40.4116C16.9076 41.0773 17.0198 41.717 17.2235 42.3146H9.37151C7.88714 42.3146 6.67947 43.5223 6.67947 45.0068V45.2002C6.67947 46.6846 7.88714 47.8923 9.37151 47.8923H9.60259L4.37682 57.038C4.36967 57.0505 4.36603 57.0639 4.35963 57.0766C4.34635 57.103 4.33405 57.1296 4.32365 57.1575C4.31479 57.1813 4.30779 57.2052 4.30131 57.2294C4.29459 57.2547 4.28863 57.2799 4.28432 57.3061C4.27971 57.3344 4.27733 57.3625 4.27581 57.391C4.27495 57.4058 4.27136 57.4199 4.27136 57.4349C4.27136 59.0609 4.64683 60.5871 5.32871 61.7323C6.01651 62.8876 6.93762 63.5502 7.85573 63.5502H14.1065C15.0246 63.5502 15.9457 62.8876 16.6335 61.7323C17.3154 60.5871 17.6909 59.0609 17.6909 57.4349C17.6909 57.4199 17.6873 57.4059 17.6865 57.391C17.6849 57.3626 17.6825 57.3344 17.6779 57.3061C17.6736 57.2799 17.6676 57.2547 17.6609 57.2295C17.6544 57.2052 17.6474 57.1814 17.6386 57.1575C17.6282 57.1296 17.6159 57.103 17.6026 57.0766C17.5962 57.064 17.5926 57.0506 17.5854 57.0381L12.3595 47.8923H17.4759V48.3923C17.4759 49.7724 18.5099 50.913 19.8434 51.0868V66.6538H19.0862C17.4346 66.6538 16.0909 67.9976 16.0909 69.6492V72.8979C16.0909 73.3398 16.449 73.6979 16.8909 73.6979H28.7525C29.1943 73.6979 29.5525 73.3398 29.5525 72.8979V69.6492C29.5525 67.9976 28.2087 66.6538 26.5571 66.6538H25.8V51.0868C27.1335 50.913 28.1675 49.7724 28.1675 48.3923V47.8923H33.0017L27.7757 57.0381C27.7686 57.0506 27.765 57.064 27.7586 57.0766C27.7453 57.103 27.733 57.1296 27.7226 57.1575C27.7137 57.1814 27.7067 57.2052 27.7002 57.2295C27.6935 57.2547 27.6876 57.2799 27.6833 57.3061C27.6786 57.3344 27.6763 57.3626 27.6747 57.391C27.6739 57.4058 27.6703 57.4199 27.6703 57.4349C27.6703 59.0609 28.0458 60.5871 28.7276 61.7323C29.4154 62.8876 30.3365 63.5502 31.2547 63.5502H37.5054C38.4236 63.5502 39.3447 62.8876 40.0325 61.7323C40.7143 60.5871 41.0898 59.0609 41.0898 57.4349C41.0898 57.4199 41.0862 57.4058 41.0854 57.391ZM10.981 48.7047L15.5125 56.6349H6.44979L10.981 48.7047ZM14.1065 61.9502H7.85573C7.31792 61.9502 6.12527 60.6885 5.90619 58.2349H16.056C15.837 60.6885 14.6443 61.9502 14.1065 61.9502ZM36.2718 43.9146C36.874 43.9146 37.3639 44.4046 37.3639 45.0068V45.2002C37.3639 45.8024 36.874 46.2922 36.2718 46.2922H27.9072C27.6338 45.7117 27.1624 45.2437 26.5791 44.9754C26.9557 44.6647 27.2928 44.308 27.583 43.9146L36.2718 43.9146ZM22.8217 36.0976C25.2004 36.0976 27.1357 38.0329 27.1357 40.4116C27.1357 42.7904 25.2004 44.7257 22.8217 44.7257C20.4429 44.7257 18.5076 42.7904 18.5076 40.4116C18.5076 38.0329 20.4429 36.0976 22.8217 36.0976ZM8.27949 45.2002V45.0068C8.27949 44.4046 8.76933 43.9146 9.37152 43.9146H18.0604C18.3505 44.308 18.6876 44.6647 19.0643 44.9754C18.481 45.2437 18.0095 45.7117 17.7361 46.2922H9.37152C8.76933 46.2922 8.27949 45.8024 8.27949 45.2002ZM27.9524 69.6491V72.0979H17.6909V69.6491C17.6909 68.8797 18.3168 68.2538 19.0862 68.2538H20.6434H25H26.5571C27.3265 68.2538 27.9524 68.8797 27.9524 69.6491ZM21.4434 66.6538V51.1122H24.2V66.6538H21.4434ZM26.5675 48.3922C26.5675 49.0097 26.065 49.5122 25.4475 49.5122H25H20.6434H20.1959C19.5784 49.5122 19.0759 49.0097 19.0759 48.3922V47.4457C19.0759 46.8282 19.5784 46.3257 20.1959 46.3257H25.4475C26.065 46.3257 26.5675 46.8282 26.5675 47.4457V48.3922ZM38.9114 56.6349H29.8487L34.3801 48.7047L38.9114 56.6349ZM37.5054 61.9502H31.2546C30.7168 61.9502 29.5242 60.6885 29.3051 58.2349H39.4549C39.2359 60.6885 38.0432 61.9502 37.5054 61.9502Z" fill="#DB3B16"/>
<path d="M53.8527 62.5723C53.7225 62.5723 53.5924 62.5406 53.4741 62.477C53.2304 62.346 53.0716 62.0985 53.0543 61.8224L52.5377 53.5988C52.5199 53.3156 52.6535 53.0442 52.8888 52.8856L56.8074 50.242C57.0533 50.0756 57.3716 50.0596 57.6333 50.2004L61.4158 52.2329C61.6775 52.3735 61.8399 52.6476 61.8372 52.9446L61.7954 57.6713C61.7929 57.9551 61.6402 58.2163 61.3943 58.3577L54.2516 62.4657C54.1282 62.5366 53.9905 62.5723 53.8527 62.5723ZM54.1633 53.9557L54.5704 60.4367L60.1994 57.1992L60.233 53.4137L57.3016 51.8385L54.1633 53.9557Z" fill="black"/>
<path d="M53.852 62.5723C53.7241 62.5723 53.5945 62.5415 53.4741 62.4768C53.0848 62.2678 52.9388 61.7826 53.148 61.3936L56.4502 55.2481C56.6594 54.8586 57.1448 54.7132 57.5334 54.922C57.9227 55.1311 58.0688 55.6162 57.8595 56.0053L54.5573 62.1507C54.413 62.4195 54.137 62.5723 53.852 62.5723Z" fill="black"/>
<path d="M61.0372 53.7375C60.9072 53.7375 60.7771 53.7059 60.6586 53.6422L56.8761 51.6097C56.6169 51.4705 56.455 51.2 56.4547 50.9058C56.4546 50.7533 56.4692 47.135 58.068 44.1598L66.5503 28.3741C67.6291 26.3668 70.3122 23.4312 73.5269 25.1583C75.0327 25.9673 75.7925 27.357 75.7246 29.1771C75.6627 30.8314 74.9213 32.3308 74.6955 32.7509L66.2132 48.5366C64.6146 51.5119 61.6054 53.5209 61.478 53.6052C61.3449 53.6931 61.1913 53.7375 61.0372 53.7375ZM58.0725 50.4362L60.9767 51.9969C61.79 51.3878 63.7119 49.8111 64.8038 47.7792L73.2861 31.9936C73.4706 31.6501 74.0767 30.4276 74.1256 29.1173C74.1705 27.9161 73.7269 27.0822 72.7695 26.5676C71.8119 26.0533 70.8719 26.1436 69.8949 26.844C68.8292 27.608 68.1442 28.788 67.9597 29.1315L59.4774 44.9172C58.3857 46.9489 58.1316 49.4214 58.0725 50.4362Z" fill="black"/>
<path d="M65.8155 48.3857C65.6875 48.3857 65.558 48.3549 65.4375 48.2902L58.7017 44.6709C58.3125 44.4618 58.1664 43.9766 58.3756 43.5876L60.0753 40.4243C60.1758 40.2373 60.3463 40.098 60.5494 40.0368C60.7527 39.9758 60.9719 39.9978 61.1587 40.0982L67.8945 43.7177C68.2836 43.9268 68.4297 44.412 68.2205 44.801L66.5208 47.9641C66.3764 48.2329 66.1005 48.3857 65.8155 48.3857ZM60.1637 43.6401L65.49 46.5021L66.4323 44.7485L61.1061 41.8863L60.1637 43.6401Z" fill="black"/>
<path d="M53.8527 62.5722H45.9561C45.5143 62.5722 45.1561 62.214 45.1561 61.7722C45.1561 61.3303 45.5143 60.9722 45.9561 60.9722H53.8527C54.2946 60.9722 54.6527 61.3303 54.6527 61.7722C54.6527 62.214 54.2946 62.5722 53.8527 62.5722Z" fill="black"/>
<path d="M53.3361 18.5067H40.2899C39.848 18.5067 39.4899 18.1485 39.4899 17.7067C39.4899 17.2649 39.848 16.9067 40.2899 16.9067H53.3361C53.778 16.9067 54.1361 17.2649 54.1361 17.7067C54.1361 18.1485 53.778 18.5067 53.3361 18.5067Z" fill="black"/>
</svg>
