<svg width="25" height="26" viewBox="0 0 25 26" fill="none" xmlns="http://www.w3.org/2000/svg">
<rect x="0.5" y="1" width="24" height="24" stroke="#DCDCDC"/>
<g clip-path="url(#clip0_165_3744)">
<path d="M12.5 6C8.64027 6 5.5 9.14027 5.5 13C5.5 16.8597 8.64027 20 12.5 20C16.3597 20 19.5 16.8597 19.5 13C19.5 9.14027 16.3597 6 12.5 6ZM12.5 19.125C9.12262 19.125 6.375 16.3774 6.375 13C6.375 9.62262 9.12262 6.875 12.5 6.875C15.8774 6.875 18.625 9.62262 18.625 13C18.625 16.3774 15.8774 19.125 12.5 19.125Z" fill="#DB3B16"/>
<path d="M12.9375 8.625H12.0625V13.1811L14.8157 15.9343L15.4343 15.3157L12.9375 12.8188V8.625Z" fill="#DB3B16"/>
</g>
<defs>
<clipPath id="clip0_165_3744">
<rect width="14" height="14" fill="white" transform="translate(5.5 6)"/>
</clipPath>
</defs>
</svg>
