<svg width="25" height="26" fill="none" xmlns="http://www.w3.org/2000/svg"><path stroke="#DCDCDC" d="M.5 1h24v24H.5z"/><path d="M12.5 6a5.256 5.256 0 00-5.25 5.25c0 4.53 4.77 8.485 4.973 8.651a.436.436 0 00.554 0c.203-.166 4.973-4.12 4.973-8.651A5.256 5.256 0 0012.5 6zm0 12.982c-1.003-.904-4.375-4.206-4.375-7.732A4.38 4.38 0 0112.5 6.875a4.38 4.38 0 014.375 4.375c0 3.52-3.373 6.828-4.375 7.732z" fill="#DB3B16"/><path d="M12.5 8.625a2.628 2.628 0 00-2.625 2.625 2.628 2.628 0 002.625 2.625 2.628 2.628 0 002.625-2.625A2.628 2.628 0 0012.5 8.625zm0 4.375c-.965 0-1.75-.785-1.75-1.75s.785-1.75 1.75-1.75 1.75.785 1.75 1.75S13.465 13 12.5 13z" fill="#DB3B16"/></svg>